<svg xmlns="http://www.w3.org/2000/svg" viewBox="0 0 300 400" width="300" height="400">
  <rect width="300" height="400" fill="#ffffff"/>
  <!-- Header -->
  <text x="20" y="22" font-family="Arial,sans-serif" font-size="14" font-weight="700" fill="#111" letter-spacing="1">ESTELLE DARCY</text>
  <text x="20" y="33" font-family="Arial,sans-serif" font-size="7" fill="#555" letter-spacing="2">UX DESIGNER</text>
  <line x1="20" y1="38" x2="280" y2="38" stroke="#111" stroke-width="1.5"/>
  <text x="20" y="47" font-family="Arial,sans-serif" font-size="6" fill="#555">123 Anywhere St. | hello@site.com | www.site.com</text>
  <!-- Intro paragraph -->
  <rect x="20" y="52" width="260" height="4" rx="2" fill="#ddd"/>
  <rect x="20" y="58" width="245" height="4" rx="2" fill="#ddd"/>
  <rect x="20" y="64" width="255" height="4" rx="2" fill="#ddd"/>
  <!-- Two col body -->
  <!-- Main col -->
  <!-- Area of Expertise -->
  <text x="20" y="82" font-family="Arial,sans-serif" font-size="7.5" font-weight="700" fill="#111" letter-spacing="1">AREA OF EXPERTISE</text>
  <line x1="20" y1="85" x2="195" y2="85" stroke="#111" stroke-width="1"/>
  <text x="20" y="95" font-family="Arial,sans-serif" font-size="6.5" fill="#374151">Prototyping Tools</text>
  <text x="110" y="95" font-family="Arial,sans-serif" font-size="6.5" fill="#374151">Interaction Design</text>
  <text x="20" y="104" font-family="Arial,sans-serif" font-size="6.5" fill="#374151">User Research</text>
  <text x="110" y="104" font-family="Arial,sans-serif" font-size="6.5" fill="#374151">Visual Design</text>
  <!-- Key Achievements -->
  <text x="20" y="120" font-family="Arial,sans-serif" font-size="7.5" font-weight="700" fill="#111" letter-spacing="1">KEY ACHIEVEMENTS</text>
  <line x1="20" y1="123" x2="195" y2="123" stroke="#111" stroke-width="1"/>
  <text x="20" y="133" font-family="Arial,sans-serif" font-size="6.5" fill="#374151"><tspan font-weight="700">Market Expansion.</tspan> Revenue increase of $1.2M</text>
  <rect x="20" y="136" width="175" height="4" rx="2" fill="#e5e7eb"/>
  <text x="20" y="149" font-family="Arial,sans-serif" font-size="6.5" fill="#374151"><tspan font-weight="700">Revenue Growth.</tspan> Deal size up 15%</text>
  <rect x="20" y="152" width="170" height="4" rx="2" fill="#e5e7eb"/>
  <!-- Professional Experience -->
  <text x="20" y="168" font-family="Arial,sans-serif" font-size="7.5" font-weight="700" fill="#111" letter-spacing="1">PROFESSIONAL EXPERIENCE</text>
  <line x1="20" y1="171" x2="195" y2="171" stroke="#111" stroke-width="1"/>
  <text x="20" y="182" font-family="Arial,sans-serif" font-size="7" font-weight="700" fill="#111">Instant Chartz, Morcelle Program</text>
  <text x="195" y="182" font-family="Arial,sans-serif" font-size="6" fill="#6b7280" text-anchor="end">Jan 2023 – Present</text>
  <text x="26" y="191" font-family="Arial,sans-serif" font-size="6.5" fill="#374151">• Advanced automation, +15% operational efficiency</text>
  <text x="26" y="199" font-family="Arial,sans-serif" font-size="6.5" fill="#374151">• Streamlined manufacturing, -10% production cost</text>
  <text x="26" y="207" font-family="Arial,sans-serif" font-size="6.5" fill="#374151">• Preventive maintenance, -20% equipment downtime</text>
  <text x="20" y="220" font-family="Arial,sans-serif" font-size="7" font-weight="700" fill="#111">System UX Engineer, XarrowAI</text>
  <text x="195" y="220" font-family="Arial,sans-serif" font-size="6" fill="#6b7280" text-anchor="end">Feb 2021 – Dec 2022</text>
  <text x="26" y="229" font-family="Arial,sans-serif" font-size="6.5" fill="#374151">• Robotic control system, +12% performance</text>
  <text x="26" y="237" font-family="Arial,sans-serif" font-size="6.5" fill="#374151">• -15% system failures through testing protocols</text>
  <!-- Education -->
  <text x="20" y="253" font-family="Arial,sans-serif" font-size="7.5" font-weight="700" fill="#111" letter-spacing="1">EDUCATION</text>
  <line x1="20" y1="256" x2="195" y2="256" stroke="#111" stroke-width="1"/>
  <text x="20" y="266" font-family="Arial,sans-serif" font-size="7" font-weight="700" fill="#111">UX Industrial Basics</text>
  <text x="195" y="266" font-family="Arial,sans-serif" font-size="6" fill="#6b7280" text-anchor="end">Aug 2016 – Oct 2019</text>
  <text x="20" y="274" font-family="Arial,sans-serif" font-size="6.5" fill="#555">University of Engineering UX Cohort</text>
  <text x="20" y="287" font-family="Arial,sans-serif" font-size="7" font-weight="700" fill="#111">Bachelor of Design</text>
  <text x="195" y="287" font-family="Arial,sans-serif" font-size="6" fill="#6b7280" text-anchor="end">May 2014 – May 2016</text>
  <text x="20" y="295" font-family="Arial,sans-serif" font-size="6.5" fill="#555">Engineering University</text>
  <!-- Sidebar / Additional info -->
  <line x1="205" y1="76" x2="205" y2="360" stroke="#e5e7eb" stroke-width="0.8"/>
  <text x="212" y="88" font-family="Arial,sans-serif" font-size="7" font-weight="700" fill="#0d9488" letter-spacing="1">ADDITIONAL</text>
  <line x1="212" y1="91" x2="288" y2="91" stroke="#0d9488" stroke-width="1"/>
  <text x="212" y="103" font-family="Arial,sans-serif" font-size="6.5" font-weight="700" fill="#374151">Languages:</text>
  <text x="212" y="112" font-family="Arial,sans-serif" font-size="6" fill="#374151">English, French, Mandarin</text>
  <text x="212" y="127" font-family="Arial,sans-serif" font-size="6.5" font-weight="700" fill="#374151">Certifications:</text>
  <rect x="212" y="130" width="76" height="4" rx="2" fill="#e5e7eb"/>
  <rect x="212" y="136" width="65" height="4" rx="2" fill="#e5e7eb"/>
  <text x="212" y="155" font-family="Arial,sans-serif" font-size="6.5" font-weight="700" fill="#374151">Awards:</text>
  <rect x="212" y="158" width="76" height="4" rx="2" fill="#e5e7eb"/>
  <rect x="212" y="164" width="65" height="4" rx="2" fill="#e5e7eb"/>
  <rect x="212" y="170" width="70" height="4" rx="2" fill="#e5e7eb"/>
  <!-- PREMIUM badge -->
  <rect x="226" y="378" width="62" height="16" rx="8" fill="#c9a84c"/>
  <text x="257" y="390" font-family="Arial,sans-serif" font-size="7.5" font-weight="700" fill="#000" text-anchor="middle">★ PREMIUM</text>
</svg>
